Model Marker Locations from IK
version=1
nRows=4
nColumns=118
inDegrees=no
endheader
time	R.Heel_tx	R.Heel_ty	R.Heel_tz	R.Midfoot.Superior_tx	R.Midfoot.Superior_ty	R.Midfoot.Superior_tz	R.Midfoot.Lateral_tx	R.Midfoot.Lateral_ty	R.Midfoot.Lateral_tz	R.Toe_tx	R.Toe_ty	R.Toe_tz	L.Heel_tx	L.Heel_ty	L.Heel_tz	L.Midfoot.Superior_tx	L.Midfoot.Superior_ty	L.Midfoot.Superior_tz	L.Midfoot.Lateral_tx	L.Midfoot.Lateral_ty	L.Midfoot.Lateral_tz	L.Toe_tx	L.Toe_ty	L.Toe_tz	R.Shank.Superior_tx	R.Shank.Superior_ty	R.Shank.Superior_tz	R.Shank.Inferior_tx	R.Shank.Inferior_ty	R.Shank.Inferior_tz	R.Shank.Lateral_tx	R.Shank.Lateral_ty	R.Shank.Lateral_tz	R.Shank.Posterior_tx	R.Shank.Posterior_ty	R.Shank.Posterior_tz	L.Shank.Superior_tx	L.Shank.Superior_ty	L.Shank.Superior_tz	L.Shank.Inferior_tx	L.Shank.Inferior_ty	L.Shank.Inferior_tz	L.Shank.Posterior_tx	L.Shank.Posterior_ty	L.Shank.Posterior_tz	L.Shank.Lateral_tx	L.Shank.Lateral_ty	L.Shank.Lateral_tz	R.Patella_tx	R.Patella_ty	R.Patella_tz	L.Patella_tx	L.Patella_ty	L.Patella_tz	R.Thigh.Superior_tx	R.Thigh.Superior_ty	R.Thigh.Superior_tz	R.Thigh.Lateral_tx	R.Thigh.Lateral_ty	R.Thigh.Lateral_tz	R.Thigh.Inferior_tx	R.Thigh.Inferior_ty	R.Thigh.Inferior_tz	L.Thigh.Superior_tx	L.Thigh.Superior_ty	L.Thigh.Superior_tz	L.Thigh.Inferior_tx	L.Thigh.Inferior_ty	L.Thigh.Inferior_tz	L.Thigh.Lateral_tx	L.Thigh.Lateral_ty	L.Thigh.Lateral_tz	L.ASIS_tx	L.ASIS_ty	L.ASIS_tz	R.ASIS_tx	R.ASIS_ty	R.ASIS_tz	Sacral_tx	Sacral_ty	Sacral_tz	R.Shoulder_tx	R.Shoulder_ty	R.Shoulder_tz	L.Shoulder_tx	L.Shoulder_ty	L.Shoulder_tz	C7_tx	C7_ty	C7_tz	J.Notch_tx	J.Notch_ty	J.Notch_tz	Sternum_tx	Sternum_ty	Sternum_tz	Thoracic_tx	Thoracic_ty	Thoracic_tz	L.Elbow_tx	L.Elbow_ty	L.Elbow_tz	L.Wrist_tx	L.Wrist_ty	L.Wrist_tz	R.Elbow_tx	R.Elbow_ty	R.Elbow_tz	R.Wrist_tx	R.Wrist_ty	R.Wrist_tz	R.PSIS_tx	R.PSIS_ty	R.PSIS_tz	L.PSIS_tx	L.PSIS_ty	L.PSIS_tz
      2.56333333	      0.94285755	      0.08517305	      0.07553864	      1.08581555	      0.18308391	      0.10028269	      1.01784633	      0.09377850	      0.13437291	      1.21108609	      0.18030801	      0.11374032	      0.65329601	      0.04328578	     -0.09525764	      0.81680186	      0.09552783	     -0.14115087	      0.72215736	      0.02911463	     -0.16339478	      0.93237585	      0.05682467	     -0.16420460	      0.95232691	      0.42017632	      0.10261161	      0.98541504	      0.30396742	      0.10578755	      0.89802389	      0.33445477	      0.15089467	      0.82468045	      0.37021852	      0.08488613	      0.77679223	      0.35361129	     -0.14799767	      0.76047929	      0.23902805	     -0.14408778	      0.62689209	      0.34093340	     -0.14499576	      0.69670446	      0.27894535	     -0.19766045	      0.94492768	      0.52903701	      0.07748701	      0.79284074	      0.46689535	     -0.15041203	      0.85602970	      0.83975080	      0.07127291	      0.80966099	      0.74582477	      0.13212536	      0.91502238	      0.68914612	      0.05633169	      0.84804296	      0.77104194	     -0.18428666	      0.82562871	      0.60730385	     -0.17020846	      0.74756915	      0.70196552	     -0.23944453	      0.83275755	      0.95291831	     -0.17201049	      0.81313991	      0.95193015	      0.07081978	      0.63320425	      0.98637407	     -0.06117950	      0.73358378	      1.43316622	      0.08338994	      0.75175518	      1.43073691	     -0.23818279	      0.71202373	      1.47646959	     -0.07534954	      0.84051195	      1.38266334	     -0.07051860	      0.89520608	      1.19714413	     -0.07094039	      0.62969686	      1.32950070	     -0.07977078	      0.74813183	      1.18958634	     -0.41124543	      0.90827769	      0.98170676	     -0.45253554	      0.66476314	      1.18825148	      0.25178515	      0.73893637	      0.97275919	      0.38978788	      0.63128382	      0.98990250	     -0.02466076	      0.63339114	      0.98858813	     -0.09887677
      2.56999134	      0.94302665	      0.08525336	      0.07578803	      1.08601878	      0.18316335	      0.10033749	      1.01807194	      0.09388623	      0.13454618	      1.21130167	      0.18038172	      0.11367843	      0.65330509	      0.04329611	     -0.09525107	      0.81680778	      0.09552672	     -0.14116861	      0.72216457	      0.02910262	     -0.16338545	      0.93238218	      0.05681885	     -0.16421235	      0.95261437	      0.42028101	      0.10265989	      0.98567082	      0.30406403	      0.10587003	      0.89833353	      0.33460358	      0.15104612	      0.82493545	      0.37035131	      0.08508966	      0.77679945	      0.35361711	     -0.14801996	      0.76048261	      0.23903463	     -0.14410423	      0.62689974	      0.34094602	     -0.14496867	      0.69669196	      0.27895459	     -0.19765608	      0.94521825	      0.52913357	      0.07748774	      0.79285138	      0.46689837	     -0.15043779	      0.85620036	      0.83984417	      0.07115248	      0.80992243	      0.74593892	      0.13210603	      0.91523910	      0.68925314	      0.05625556	      0.84809444	      0.77102932	     -0.18433439	      0.82565593	      0.60729540	     -0.17024644	      0.74759234	      0.70196930	     -0.23946126	      0.83278798	      0.95296464	     -0.17205731	      0.81323676	      0.95197928	      0.07077833	      0.63325140	      0.98634515	     -0.06117353	      0.73361729	      1.43316568	      0.08339027	      0.75176722	      1.43075021	     -0.23818377	      0.71204424	      1.47647424	     -0.07534603	      0.84053784	      1.38267473	     -0.07052747	      0.89524196	      1.19715849	     -0.07096035	      0.62972501	      1.32950108	     -0.07976762	      0.74810740	      1.18955941	     -0.41130745	      0.90831606	      0.98170045	     -0.45253733	      0.66473888	      1.18823824	      0.25183271	      0.73894612	      0.97272489	      0.38979519	      0.63133948	      0.98987441	     -0.02465442	      0.63342715	      0.98855763	     -0.09887094
      2.57664935	      0.94311733	      0.08531221	      0.07605630	      1.08615987	      0.18320648	      0.10037368	      1.01823764	      0.09396193	      0.13471602	      1.21145874	      0.18040663	      0.11355979	      0.65331096	      0.04330139	     -0.09523992	      0.81680890	      0.09552424	     -0.14118315	      0.72216550	      0.02909243	     -0.16337607	      0.93238241	      0.05681324	     -0.16422614	      0.95287971	      0.42036759	      0.10270298	      0.98588572	      0.30413726	      0.10594869	      0.89861344	      0.33474570	      0.15120372	      0.82515794	      0.37048637	      0.08530739	      0.77680875	      0.35361754	     -0.14803866	      0.76048648	      0.23903604	     -0.14411668	      0.62690915	      0.34095499	     -0.14494676	      0.69668366	      0.27895876	     -0.19765197	      0.94550048	      0.52921271	      0.07748032	      0.79286591	      0.46689661	     -0.15046129	      0.85637687	      0.83992978	      0.07101552	      0.81019266	      0.74605108	      0.13208095	      0.91545340	      0.68934899	      0.05616507	      0.84814007	      0.77101605	     -0.18437928	      0.82568314	      0.60728549	     -0.17028159	      0.74761497	      0.70196809	     -0.23947933	      0.83281181	      0.95299924	     -0.17211412	      0.81334512	      0.95201731	      0.07072833	      0.63330263	      0.98631808	     -0.06116252	      0.73364036	      1.43316295	      0.08338593	      0.75176932	      1.43075934	     -0.23818939	      0.71205314	      1.47647474	     -0.07534757	      0.84055511	      1.38268610	     -0.07054047	      0.89527511	      1.19717457	     -0.07098289	      0.62974623	      1.32949466	     -0.07976844	      0.74812671	      1.18956631	     -0.41131254	      0.90832946	      0.98169950	     -0.45253950	      0.66475088	      1.18823935	      0.25183333	      0.73895537	      0.97272330	      0.38980031	      0.63140220	      0.98984820	     -0.02464290	      0.63346458	      0.98852908	     -0.09886009
      2.58330736	      0.94313505	      0.08536339	      0.07632186	      1.08624664	      0.18321784	      0.10039201	      1.01833570	      0.09401993	      0.13487754	      1.21156167	      0.18037823	      0.11341510	      0.65329982	      0.04328195	     -0.09523624	      0.81679203	      0.09551611	     -0.14118702	      0.72216071	      0.02906164	     -0.16336360	      0.93237317	      0.05681623	     -0.16421036	      0.95311913	      0.42044259	      0.10273767	      0.98606062	      0.30419490	      0.10601708	      0.89886303	      0.33488402	      0.15136136	      0.82534633	      0.37062561	      0.08553381	      0.77684480	      0.35359404	     -0.14805799	      0.76049971	      0.23901604	     -0.14412872	      0.62694310	      0.34096227	     -0.14494178	      0.69669656	      0.27894961	     -0.19765552	      0.94576609	      0.52928155	      0.07746504	      0.79292750	      0.46687602	     -0.15049475	      0.85652842	      0.84001011	      0.07086963	      0.81044718	      0.74615869	      0.13205466	      0.91564578	      0.68944090	      0.05606442	      0.84814184	      0.77102246	     -0.18442606	      0.82571924	      0.60728762	     -0.17032335	      0.74761529	      0.70195596	     -0.23950021	      0.83281395	      0.95295964	     -0.17219345	      0.81348908	      0.95199443	      0.07066039	      0.63337741	      0.98633019	     -0.06112686	      0.73364976	      1.43315597	      0.08338173	      0.75176732	      1.43076165	     -0.23819430	      0.71204989	      1.47646752	     -0.07535011	      0.84056683	      1.38269907	     -0.07054960	      0.89531610	      1.19719619	     -0.07099773	      0.62976601	      1.32947454	     -0.07977091	      0.74819576	      1.18963367	     -0.41127785	      0.90828207	      0.98169944	     -0.45255615	      0.66480062	      1.18826393	      0.25178533	      0.73895376	      0.97275704	      0.38979553	      0.63149916	      0.98986259	     -0.02460632	      0.63351782	      0.98853925	     -0.09882463
